<?xml version="1.0" encoding="UTF-8"?>
<svg width="68px" height="101px" viewBox="0 0 68 101" version="1.1" xmlns="http://www.w3.org/2000/svg" xmlns:xlink="http://www.w3.org/1999/xlink">
    <title>Design</title>
    <defs>
        <filter id="filter-1">
            <feColorMatrix in="SourceGraphic" type="matrix" values="0 0 0 0 0.815686 0 0 0 0 0.007843 0 0 0 0 0.105882 0 0 0 1.000000 0"></feColorMatrix>
        </filter>
    </defs>
    <g id="Page-1" stroke="none" stroke-width="1" fill="none" fill-rule="evenodd">
        <g id="Design" transform="translate(-136.000000, -141.000000)" filter="url(#filter-1)">
            <g transform="translate(136.000000, 141.000000)">
                <path d="M42.6615044,79.6078431 C41.2749124,79.8774016 39.875849,80.0948606 38.4767856,80.3134521 C40.3282204,87.7149844 41.0073444,94.977207 38.2352941,100.078431 C41.7953096,93.5184199 42.9585503,86.5699271 42.6615044,79.6078431 L42.6615044,79.6078431 L42.6615044,79.6078431 Z" id="Shape" fill="#5FDD3C"></path>
                <path d="M34.6067258,43.1330535 C32.8813366,34.6466895 32.8190686,27.7348111 39.4409858,24.1338833 L37.4291638,19.2359871 C32.7092505,20.5816626 32.658304,20.8580471 28.4376667,12.8270379 C37.4382209,7.65955361 27.1356998,-4.77888245 20.2556535,2.1058106 C16.0938878,6.26064017 18.9978402,13.5168665 24.8351808,13.7116949 C22.6942942,29.082752 13.256732,21.5943173 3.20554701,31.7752356 C-5.46442081,40.5583731 5.44719447,44.9918527 19.5220234,49.3415107 C13.0982316,51.9547036 9.34856678,49.9803667 6.97106189,53.5076675 C3.09686107,59.4431383 31.3653942,71.1487023 34.2014179,72.5600757 C24.6947948,67.8275572 15.9750125,58.7748314 30.514021,53.3015118 C32.1963887,59.1792137 36.0524752,68.2126831 38.2522333,77.0196078 C39.6560934,76.8032577 41.0520284,76.5835093 42.4332455,76.3139211 C42.070959,67.672374 39.4545715,59.0070397 36.3615509,51.0507903 C47.139573,48.4160756 58.305921,54.0309857 67.4117647,46.8257319 C47.8358423,45.6329741 46.0232779,41.4158448 34.6067258,43.1330535 M25.5075016,30.1960784 C26.0466272,34.1646668 26.7469229,38.1026579 27.6129289,42.006652 C29.8965514,52.3270217 -3.65522033,44.6108256 25.5075016,30.1960784" id="Shape" fill="#5FDD3C"></path>
                <path d="M64.0392157,19.3432499 C61.2897245,17.2317622 50.6779115,16.0340838 45.9342465,16.763548 C43.3263065,17.1672979 41.4181958,17.6807502 39.9607843,18.0958097 C40.429602,19.4280713 40.9029493,20.7659878 41.5133183,22.0722376 C41.6220296,22.3990827 41.780567,22.6931303 41.968547,22.9803922 C42.4996473,22.699916 44.0940804,22.0597971 44.3262244,21.9580114 C45.4654288,21.6096781 53.9709594,19.1645595 64.0392157,19.3432499 L64.0392157,19.3432499 L64.0392157,19.3432499 Z" id="Shape" fill="#5FDD3C"></path>
            </g>
        </g>
    </g>
</svg>